<?xml version="1.0" standalone="no"?>
<!DOCTYPE svg PUBLIC "-//W3C//DTD SVG 20010904//EN"
 "http://www.w3.org/TR/2001/REC-SVG-20010904/DTD/svg10.dtd">
<svg version="1.0" xmlns="http://www.w3.org/2000/svg"
 width="300.000000pt" height="36.000000pt" viewBox="0 0 300.000000 36.000000"
 preserveAspectRatio="xMidYMid meet">
<metadata>
Created by potrace 1.10, written by Peter Selinger 2001-2011
</metadata>
<g transform="translate(0.000000,36.000000) scale(0.100000,-0.100000)"
fill="#000000" stroke="none">
<path d="M1167 353 c-4 -3 -7 -80 -7 -170 l0 -163 140 0 140 0 0 170 0 170
-133 0 c-74 0 -137 -3 -140 -7z m236 -15 c-13 -18 -86 -111 -94 -121 -5 -7
-109 114 -109 128 0 3 48 5 106 5 84 0 104 -3 97 -12z m-160 -85 l47 -62 -51
-68 c-28 -37 -53 -70 -55 -72 -2 -2 -4 60 -4 139 0 79 4 140 8 135 5 -6 30
-38 55 -72z m175 -123 l-3 -72 -49 67 c-34 46 -46 71 -40 80 5 7 27 37 49 67
l40 55 3 -63 c2 -35 2 -95 0 -134z m-60 -25 c29 -36 52 -67 52 -68 0 -1 -47
-2 -105 -2 -58 0 -104 3 -102 6 6 14 93 128 97 129 3 0 29 -29 58 -65z"/>
<path d="M2440 190 l0 -170 140 0 140 0 0 170 0 170 -140 0 -140 0 0 -170z
m197 91 c-28 -39 -54 -70 -57 -70 -3 0 -29 31 -58 70 l-53 69 110 0 111 0 -53
-69z m-99 -126 c-15 -22 -39 -53 -53 -70 l-24 -30 -1 139 0 138 53 -68 54 -69
-29 -40z m160 -26 l-3 -72 -51 67 -52 67 52 69 51 69 3 -64 c2 -35 2 -96 0
-136z m-65 -23 c26 -35 47 -66 47 -68 0 -2 -45 -3 -100 -3 -55 0 -100 3 -100
7 0 9 93 128 100 128 3 0 26 -29 53 -64z"/>
<path d="M38 180 c-3 -119 -3 -120 20 -120 20 0 22 5 22 48 l1 47 19 -23 c11
-13 28 -35 38 -49 12 -17 26 -24 41 -21 22 3 21 4 -13 45 -41 48 -43 53 -17
53 25 0 51 36 51 71 0 42 -41 69 -106 69 l-53 0 -3 -120z m112 65 c20 -24 4
-45 -35 -45 -32 0 -35 2 -35 30 0 26 3 30 29 30 16 0 34 -7 41 -15z"/>
<path d="M270 298 c-1 -2 -2 -56 -3 -121 l-2 -117 83 0 c75 0 82 2 82 20 0 18
-7 20 -60 20 -60 0 -60 0 -60 30 0 30 0 30 60 30 53 0 60 2 60 20 0 18 -7 20
-60 20 -60 0 -60 0 -60 30 0 30 0 30 60 30 53 0 60 2 60 20 0 18 -7 20 -80 20
-44 0 -80 -1 -80 -2z"/>
<path d="M540 258 c-6 -24 -20 -76 -31 -116 -23 -88 -23 -82 0 -82 11 0 23 9
26 20 4 14 15 20 35 20 20 0 31 -6 35 -20 6 -18 46 -30 44 -12 0 4 -12 57 -27
117 -24 95 -31 110 -49 113 -18 3 -24 -4 -33 -40z m46 -85 c6 -40 5 -43 -16
-43 -20 0 -22 4 -16 31 3 17 6 41 6 52 0 35 18 6 26 -40z"/>
<path d="M752 290 c-29 -12 -42 -48 -42 -119 0 -80 24 -111 85 -111 36 0 48 5
65 28 l22 27 -22 3 c-12 2 -27 -1 -33 -7 -6 -6 -23 -11 -38 -11 -30 0 -39 19
-39 83 0 69 36 99 74 62 16 -16 56 -21 56 -6 0 39 -80 71 -128 51z"/>
<path d="M930 275 c0 -21 5 -25 30 -25 l30 0 0 -95 c0 -88 1 -95 20 -95 19 0
20 7 20 98 l0 99 30 -5 c27 -4 30 -1 30 22 0 26 0 26 -80 26 -79 0 -80 0 -80
-25z"/>
<path d="M1520 180 l0 -120 70 0 c63 0 71 2 86 25 11 17 14 34 9 53 -3 15 -6
50 -5 79 1 66 -20 83 -102 83 l-58 0 0 -120z m123 58 c9 -26 -6 -38 -44 -38
-35 0 -39 3 -39 25 0 22 4 25 39 25 23 0 41 -5 44 -12z m1 -94 c10 -25 -12
-44 -50 -44 -31 0 -34 3 -34 30 0 28 2 30 39 30 27 0 41 -5 45 -16z"/>
<path d="M1740 180 l0 -120 85 0 c78 0 85 2 85 20 0 18 -7 20 -65 20 l-65 0 0
100 c0 93 -1 100 -20 100 -19 0 -20 -7 -20 -120z"/>
<path d="M1997 280 c-26 -20 -27 -26 -27 -105 0 -75 2 -85 22 -99 32 -23 90
-20 116 4 19 18 22 32 22 94 0 86 -16 114 -70 122 -27 4 -42 1 -63 -16z m82
-34 c7 -9 11 -40 9 -78 l-3 -63 -35 0 -35 0 -3 69 c-3 71 4 86 39 86 9 0 22
-6 28 -14z"/>
<path d="M2235 289 c-32 -19 -35 -29 -35 -115 0 -103 10 -114 98 -113 l62 1 0
69 0 69 -40 0 c-33 0 -40 -3 -40 -20 0 -14 7 -20 21 -20 16 0 20 -5 17 -27 -3
-25 -7 -28 -38 -28 l-35 0 -3 72 c-3 71 -2 73 23 79 17 4 32 1 44 -10 19 -17
51 -22 51 -7 0 40 -85 73 -125 50z"/>
<path d="M2800 290 c0 -6 11 -33 25 -60 l25 -48 -25 -57 c-30 -67 -30 -67 -4
-63 15 2 27 17 39 47 18 47 21 46 39 -11 10 -30 18 -38 37 -38 l24 0 -30 60
-30 60 27 53 c15 28 29 55 31 60 2 4 -7 7 -21 7 -20 0 -28 -9 -42 -42 l-18
-43 -19 43 c-13 29 -25 42 -38 42 -11 0 -20 -5 -20 -10z"/>
</g>
</svg>
